<svg xmlns="http://www.w3.org/2000/svg" width="18" height="24" viewBox="21 397 18 24"><path d="M36.5 402h-3a2.503 2.503 0 0 0-2.5 2.5v3.5h-1.382l-1.369-2.739A4.068 4.068 0 0 0 24.59 403a3.598 3.598 0 0 0-3.59 3.604l.054 3.78a3.973 3.973 0 0 0 1.938 3.371l2.524 1.518c.299.18.484.509.484.857v3.869a1 1 0 1 0 2 0v-3.869a3.018 3.018 0 0 0-1.453-2.571l-2.525-1.519a1.99 1.99 0 0 1-.968-1.686L23 406.588c0-.877.713-1.59 1.59-1.59.14 0 .277.014.41.04v4.96a1 1 0 1 0 2 0v-2.765l.829 1.658a1.985 1.985 0 0 0 1.789 1.106H36.5c1.379 0 2.5-1.122 2.5-2.5v-3c0-1.378-1.121-2.5-2.5-2.5Zm.5 5.5a.5.5 0 0 1-.5.5H33v-3.5a.5.5 0 0 1 .5-.5h3a.5.5 0 0 1 .5.5v3Zm-15-8a2.5 2.5 0 1 1 5 0 2.5 2.5 0 0 1-5 0Zm2 17.5v3a1 1 0 1 1-2 0v-3a1 1 0 1 1 2 0Z" fill="#9796a1" fill-rule="evenodd" data-name="person-carry-box"/></svg>