<svg xmlns="http://www.w3.org/2000/svg" width="9.845" height="9.535" viewBox="393.571 916.5 9.845 9.535"><path d="m394.613 922.011 1.46 1.067-.554 1.719c-.184.547.013 1.15.486 1.483.464.343 1.098.34 1.56-.008l1.428-1.052 1.43 1.05a1.324 1.324 0 0 0 2.044-1.473l-.555-1.719 1.461-1.067a1.324 1.324 0 0 0-.78-2.393H400.8l-.545-1.698a1.324 1.324 0 0 0-2.522 0l-.545 1.698h-1.793a1.324 1.324 0 0 0-.78 2.393Z" stroke-linejoin="round" stroke-linecap="round" stroke="#000" fill="transparent" data-name="star"/></svg>