<svg xmlns="http://www.w3.org/2000/svg" width="22.531" height="24" viewBox="0.484 -0.25 22.531 24"><g data-name="Path 69264"><path d="M21.91 12.552a1.539 1.539 0 0 0-.627.098 1.43 1.43 0 0 0-1.432-1.43h-.028c-.206 0-.41.041-.6.12a1.423 1.423 0 0 0-1.37-.97c-.181.003-.36.037-.53.1V1.28A1.282 1.282 0 0 0 16.047 0H5.267a1.282 1.282 0 0 0-1.28 1.28v3.93h-.53l-.33-1a.473.473 0 0 0-.324-.31l-1.46-.42a.483.483 0 0 0-.12-.01.47.47 0 0 0-.47.34.486.486 0 0 0 .33.6l1.21.34 1.57 4.92-.24.78a1.56 1.56 0 0 0 .36 3.1v6.11a1.276 1.276 0 0 0 1.272 1.28h8.898c.463.596.672 1.351.58 2.1 0 .53.43.96.96.96h5.86c.53 0 .96-.43.96-.96v-1.52a1.954 1.954 0 0 1 .26-1.04 3.952 3.952 0 0 0 .49-1.61v-4.8a1.438 1.438 0 0 0-1.353-1.518ZM3.847 6.17h7.8l-.8 3.01h-6.12l-.88-3.01Zm.58 5.83a.605.605 0 1 1 0-.01V12Zm.296-1.86h6.23a.809.809 0 0 0 .82-.73l.97-3.59a.488.488 0 0 0-.08-.42.474.474 0 0 0-.38-.19H4.927V1.28a.338.338 0 0 1 .334-.34h10.786c.19-.002.347.15.35.34v6.74a1.588 1.588 0 0 0-.52-.09 1.44 1.44 0 0 0-1 .39 1.496 1.496 0 0 0-.46 1.13v4.85a2.475 2.475 0 0 0-.36-.19 1.418 1.418 0 0 0-1.31.06c-.324.24-.508.627-.49 1.03v2.44h-7.33V13.1c.172-.178.301-.394.376-.63h2.884a1.583 1.583 0 0 0 1.49 1.09 1.565 1.565 0 0 0 0-3.13 1.583 1.583 0 0 0-1.49 1.09H5.303a1.574 1.574 0 0 0-.73-.89l.15-.49Zm4.354 1.874v-.024a.6.6 0 0 1 .6-.6.605.605 0 0 1 0 1.21.594.594 0 0 1-.6-.586Zm-3.81 7.996a.346.346 0 0 1-.34-.35v-1.08h7.33v.05c.03.557.319 1.067.78 1.38h-7.77Zm17.06-1.22a3.023 3.023 0 0 1-.38 1.26 2.822 2.822 0 0 0-.37 1.47v1.52a.022.022 0 0 1-.02.02h-5.86a.022.022 0 0 1-.02-.02 3.714 3.714 0 0 0-.92-2.85 5.096 5.096 0 0 0-.76-.63c-.5-.37-.8-.61-.8-.93v-3.42c0-.13.03-.23.08-.26a.59.59 0 0 1 .44.04c.423.161.702.567.7 1.02v1.5a.47.47 0 0 0 .94 0V9.45a.512.512 0 0 1 .52-.58.59.59 0 0 1 .36.13c.112.122.17.285.16.45v5.41a.465.465 0 1 0 .93 0v-2.97a.52.52 0 0 1 .452-.577c.026-.003.052-.004.078-.003a.498.498 0 0 1 .35.14.574.574 0 0 1 .17.44v3.47a.465.465 0 1 0 .93 0v-2.63a.516.516 0 0 1 .52-.58.507.507 0 0 1 .36.14.566.566 0 0 1 .16.44v3.13a.47.47 0 1 0 .94 0v-1.79a.516.516 0 0 1 .52-.58.507.507 0 0 1 .36.14.566.566 0 0 1 .16.44v4.72Z" fill-rule="evenodd"/><path d="M21.91 12.552a1.539 1.539 0 0 0-.627.098 1.43 1.43 0 0 0-1.432-1.43h-.028c-.206 0-.41.041-.6.12a1.423 1.423 0 0 0-1.37-.97c-.181.003-.36.037-.53.1V1.28A1.282 1.282 0 0 0 16.047 0H5.267a1.282 1.282 0 0 0-1.28 1.28v3.93h-.53l-.33-1a.473.473 0 0 0-.324-.31l-1.46-.42a.483.483 0 0 0-.12-.01.47.47 0 0 0-.47.34.486.486 0 0 0 .33.6l1.21.34 1.57 4.92-.24.78a1.56 1.56 0 0 0 .36 3.1v6.11a1.276 1.276 0 0 0 1.272 1.28h8.898c.463.596.672 1.351.58 2.1 0 .53.43.96.96.96h5.86c.53 0 .96-.43.96-.96v-1.52a1.954 1.954 0 0 1 .26-1.04 3.952 3.952 0 0 0 .49-1.61v-4.8a1.438 1.438 0 0 0-1.353-1.518ZM3.847 6.17h7.8l-.8 3.01h-6.12l-.88-3.01Zm.58 5.83a.605.605 0 1 1 0-.01V12Zm.296-1.86h6.23a.809.809 0 0 0 .82-.73l.97-3.59a.488.488 0 0 0-.08-.42.474.474 0 0 0-.38-.19H4.927V1.28a.338.338 0 0 1 .334-.34h10.786c.19-.002.347.15.35.34v6.74a1.588 1.588 0 0 0-.52-.09 1.44 1.44 0 0 0-1 .39 1.496 1.496 0 0 0-.46 1.13v4.85a2.475 2.475 0 0 0-.36-.19 1.418 1.418 0 0 0-1.31.06c-.324.24-.508.627-.49 1.03v2.44h-7.33V13.1c.172-.178.301-.394.376-.63h2.884a1.583 1.583 0 0 0 1.49 1.09 1.565 1.565 0 0 0 0-3.13 1.583 1.583 0 0 0-1.49 1.09H5.303a1.574 1.574 0 0 0-.73-.89l.15-.49Zm4.354 1.874v-.024a.6.6 0 0 1 .6-.6.605.605 0 0 1 0 1.21s0 0 0 0a.594.594 0 0 1-.6-.586Zm-3.81 7.996a.346.346 0 0 1-.34-.35v-1.08h7.33v.05c.03.557.319 1.067.78 1.38h-7.77Zm17.06-1.22a3.023 3.023 0 0 1-.38 1.26 2.822 2.822 0 0 0-.37 1.47v1.52a.022.022 0 0 1-.02.02h-5.86a.022.022 0 0 1-.02-.02 3.714 3.714 0 0 0-.92-2.85 5.096 5.096 0 0 0-.76-.63c-.5-.37-.8-.61-.8-.93v-3.42c0-.13.03-.23.08-.26a.59.59 0 0 1 .44.04c.423.161.702.567.7 1.02v1.5a.47.47 0 0 0 .94 0V9.45a.512.512 0 0 1 .52-.58.59.59 0 0 1 .36.13c.112.122.17.285.16.45v5.41a.465.465 0 1 0 .93 0v-2.97a.52.52 0 0 1 .452-.577c.026-.003.052-.004.078-.003a.498.498 0 0 1 .35.14.574.574 0 0 1 .17.44v3.47a.465.465 0 1 0 .93 0v-2.63a.516.516 0 0 1 .52-.58.507.507 0 0 1 .36.14.566.566 0 0 1 .16.44v3.13a.47.47 0 1 0 .94 0v-1.79a.516.516 0 0 1 .52-.58.507.507 0 0 1 .36.14.566.566 0 0 1 .16.44v4.72Z" stroke-linejoin="round" stroke-linecap="round" stroke-width=".5" stroke="#000" fill="transparent"/></g></svg>