<svg xmlns="http://www.w3.org/2000/svg" width="24" height="22" viewBox="22 256 24 22"><path d="M46 265c0-2.757-2.243-5-5-5h-2v-1c0-1.654-1.346-3-3-3h-2v2h2c.552 0 1 .449 1 1v13H24v-4h-2v6h2.037a3.504 3.504 0 0 0 3.463 4 3.504 3.504 0 0 0 3.463-4h6.074a3.504 3.504 0 0 0 3.463 4 3.504 3.504 0 0 0 3.463-4H46v-9Zm-17 9.5c0 .827-.673 1.5-1.5 1.5s-1.5-.673-1.5-1.5c0-.189.037-.356.091-.5h2.819c.054.144.091.311.091.5ZM41 262c1.654 0 3 1.346 3 3v1h-5v-4h2Zm1 12.5c0 .827-.673 1.5-1.5 1.5s-1.5-.673-1.5-1.5c0-.189.037-.356.091-.5h2.819c.054.144.091.311.091.5Zm-3-2.5v-4h5v4h-5Zm-7-14H22v-2h10v2Zm-2 4h-8v-2h8v2Zm-2 4h-6v-2h6v2Z" fill-rule="evenodd" data-name="shipping-fast"/></svg>